<svg xmlns="http://www.w3.org/2000/svg" viewBox="0 0 34.12 16.72"><defs><style>.cls-1{fill:#cc7612;stroke:#cc7612;stroke-width:0.25px;}.cls-1,.cls-2{stroke-miterlimit:10;}.cls-2{fill:#fbb90e;stroke:#fbb90e;stroke-width:0.1px;}</style></defs><g id="Layer_2" data-name="Layer 2"><g id="Layer_1-2" data-name="Layer 1"><path class="cls-1" d="M30.65,2.53c0,.14-.08.2-.24.2a6.51,6.51,0,0,1-.76-.13,10.27,10.27,0,0,0-2-.25,6.89,6.89,0,0,0-3.24,2.16,25.67,25.67,0,0,0-3.21,5.21q-2.76,5.52-7.07,6.53a10.87,10.87,0,0,0,1.57.13A5,5,0,0,0,19.19,15a14.22,14.22,0,0,0,2.29-2.76c.07-.11.12-.16.16-.16s.07,0,.08,0a9.41,9.41,0,0,1-1.31,1.77A8.44,8.44,0,0,1,18.19,16a4.9,4.9,0,0,1-2.45.56,10.5,10.5,0,0,1-2-.24,5.41,5.41,0,0,1-1.68.24q-.66,0-.66-.24c0-.18.3-.27.89-.27a10.19,10.19,0,0,1,1.45.12,5.31,5.31,0,0,0,2.67-1.4,41.3,41.3,0,0,0,3.49-5.24H15.48a53.68,53.68,0,0,1-4.31,4.19C8.79,15.63,6.55,16.6,4.44,16.6a5.39,5.39,0,0,1-3.06-.84,2.45,2.45,0,0,1-1.26-2,1.59,1.59,0,0,1,.39-1.08,1.18,1.18,0,0,1,.93-.44.65.65,0,0,1,.74.72.9.9,0,0,1-.26.64.79.79,0,0,1-.59.27q-.54,0-.54-.51l0-.23a.39.39,0,0,0,0-.13c0-.07,0-.11-.1-.11s-.15.09-.23.28a1.71,1.71,0,0,0-.11.59,2.22,2.22,0,0,0,1.17,1.88,5.15,5.15,0,0,0,2.88.77q2.44,0,5.39-2.4a15.48,15.48,0,0,0,1.49-1.42c1.08-1.14,1.95-2,2.59-2.66l.34-.36H12.05l.14-.2,2.25,0a25.63,25.63,0,0,1,6.47-5.43,13.82,13.82,0,0,1,6.64-1.73A7.54,7.54,0,0,1,29.06,2Q30.65,2,30.65,2.53ZM18.45,4.6q0,.12-.42.6a3.16,3.16,0,0,1-2.2,1.34,1.42,1.42,0,0,1-1.08-.46,1.74,1.74,0,0,1-.42-1.22,5.32,5.32,0,0,1,.75-2.06,2.41,2.41,0,0,0,.36-1.09,1.17,1.17,0,0,0-.63-1,2.84,2.84,0,0,0-1.55-.4,7.1,7.1,0,0,0-4.83,2A5.82,5.82,0,0,0,6.2,6.68,2.55,2.55,0,0,0,8.88,9.36a4.39,4.39,0,0,0,2.59-.94,5.09,5.09,0,0,0,1.84-2.26c0-.07.06-.11.09-.11a.1.1,0,0,1,.11.11,2.09,2.09,0,0,1-.4.85,6,6,0,0,1-.82,1A4.83,4.83,0,0,1,8.83,9.55a2.8,2.8,0,0,1-2.08-.8A2.87,2.87,0,0,1,6,6.63,5.9,5.9,0,0,1,8.28,2.18a7.44,7.44,0,0,1,5-2.06,2.73,2.73,0,0,1,1.87.6,2.05,2.05,0,0,1,.68,1.63,4.1,4.1,0,0,1-.55,1.83,4,4,0,0,0-.49,1.31c0,.56.34.84,1,.84s1.54-.56,2.36-1.69c.07-.09.12-.14.17-.14S18.45,4.54,18.45,4.6ZM27,2.39A11.5,11.5,0,0,0,21.52,4.1a28.9,28.9,0,0,0-5.85,5.24H20A21.51,21.51,0,0,1,23.5,4.78,8.72,8.72,0,0,1,27,2.39Z"/><path class="cls-2" d="M34.07,7.77a5.68,5.68,0,0,1-.79,2.81,8.28,8.28,0,0,1-2.16,2.51,11.82,11.82,0,0,1-4,2q2.75.82,3.54,1a5.28,5.28,0,0,0,1.25.18,2,2,0,0,0,1.4-.57l.07,0a.08.08,0,0,1,.05.07c0,.09-.14.22-.41.4A3.93,3.93,0,0,1,31,16.6a10.88,10.88,0,0,1-2.09-.16,16.67,16.67,0,0,1-2.86-1l-.21-.09a10.88,10.88,0,0,1-2.42.26c-1.61,0-2.41-.26-2.41-.78s.62-.66,1.86-.66a14.36,14.36,0,0,1,4.1.78,9.28,9.28,0,0,0,4.53-3.13,7.52,7.52,0,0,0,1.82-4.75,2.88,2.88,0,0,0-.68-2,2.44,2.44,0,0,0-1.88-.72,6.91,6.91,0,0,0-4.83,2.32,6.74,6.74,0,0,0-2.35,4.78,2.2,2.2,0,0,0,.6,1.63,2.24,2.24,0,0,0,1.64.59,4.93,4.93,0,0,0,3.86-2.07,5.41,5.41,0,0,0,1.41-3.37,1.73,1.73,0,0,0-.35-1.11,1.08,1.08,0,0,0-.9-.45,1.27,1.27,0,0,0-.58.17c-.21.11-.31.21-.31.31a0,0,0,0,0,.05,0l.14-.07a.36.36,0,0,1,.22-.06c.28,0,.42.15.42.46a.68.68,0,0,1-.19.47.59.59,0,0,1-.45.2q-.54,0-.54-.57a1,1,0,0,1,.36-.77,1.28,1.28,0,0,1,.87-.32A1.44,1.44,0,0,1,31,7.15a2.53,2.53,0,0,1,.47,1.57,4.68,4.68,0,0,1-1.75,3.53,5.62,5.62,0,0,1-3.88,1.58A2.87,2.87,0,0,1,23.68,13a3,3,0,0,1-.78-2.16c0-1.89,1-3.53,2.92-4.94a8.4,8.4,0,0,1,4.92-1.76,3.15,3.15,0,0,1,2.41,1A3.7,3.7,0,0,1,34.07,7.77ZM25.55,15.3a14,14,0,0,0-3.45-.83c-.65,0-1,.14-1,.4,0,.42.76.63,2.27.63A9.66,9.66,0,0,0,25.55,15.3Z"/></g></g></svg>